# MagicaVoxel @ Ephtracy

# group
o 

# material
mtllib loaded.mtl
usemtl palette

# normals
vn -1 0 0
vn 1 0 0
vn 0 0 1
vn 0 0 -1
vn 0 -1 0
vn 0 1 0

# texcoords
vt 0.205078 0.5
vt 0.232422 0.5
vt 0.560547 0.5
vt 0.701172 0.5
vt 0.978516 0.5
vt 0.986328 0.5

# verts
v 0.2 1.2 -1.7
v 0.2 1.2 -1.8
v 0.2 1.3 -1.4
v 0.2 1.3 -1.7
v 0.2 1.4 -1.3
v 0.2 1.4 -1.4
v 0.2 1.4 -1.7
v 0.2 1.5 -1.2
v 0.2 1.5 -1.3
v 0.2 1.5 -1.4
v 0.2 1.5 -1.6
v 0.2 1.5 -1.7
v 0.2 1.6 -1.1
v 0.2 1.6 -1.2
v 0.2 1.6 -1.3
v 0.2 1.6 -1.4
v 0.2 1.6 -1.6
v 0.2 1.6 -1.8
v 0.2 1.7 -1
v 0.2 1.7 -1.1
v 0.2 1.7 -1.3
v 0.2 1.7 -1.4
v 0.2 1.7 -1.5
v 0.2 1.7 -1.6
v 0.2 1.8 -0.3
v 0.2 1.8 -0.5
v 0.2 1.8 -0.9
v 0.2 1.8 -1
v 0.2 1.8 -1.1
v 0.2 1.8 -1.2
v 0.2 1.8 -1.4
v 0.2 1.8 -1.5
v 0.2 1.9 0.5
v 0.2 1.9 -0.1
v 0.2 1.9 -0.3
v 0.2 1.9 -0.5
v 0.2 1.9 -0.8
v 0.2 1.9 -0.9
v 0.2 1.9 -1.1
v 0.2 1.9 -1.3
v 0.2 1.9 -1.4
v 0.2 2 1.7
v 0.2 2 0.8
v 0.2 2 0.7
v 0.2 2 0.5
v 0.2 2 -0.2
v 0.2 2 -0.3
v 0.2 2 -0.5
v 0.2 2 -0.6
v 0.2 2 -1.1
v 0.2 2 -1.3
v 0.2 2.1 -0.7
v 0.2 2.1 -0.8
v 0.2 2.1 -1.1
v 0.2 2.2 2
v 0.2 2.2 1.7
v 0.2 2.2 0.8
v 0.2 2.2 0.7
v 0.2 2.2 -0.1
v 0.2 2.2 -0.4
v 0.2 2.2 -0.6
v 0.2 2.2 -0.7
v 0.2 2.3 -0.2
v 0.2 2.3 -0.4
v 0.2 2.3 -0.5
v 0.2 2.3 -0.6
v 0.2 2.4 2
v 0.2 2.4 0.0999999
v 0.2 2.4 -0.1
v 0.2 2.4 -0.5
v 0.2 2.5 0.0999999
v 0.2 2.5 -0.1
v 0.3 1.6 -0.1
v 0.3 1.6 -0.4
v 0.3 1.7 -0.2
v 0.3 1.7 -0.4
v 0.3 1.7 -0.7
v 0.3 1.8 -0.2
v 0.3 1.8 -0.3
v 0.3 1.8 -0.4
v 0.3 1.8 -0.5
v 0.3 1.8 -0.6
v 0.3 1.9 -0.1
v 0.3 1.9 -0.3
v 0.3 1.9 -0.6
v 0.3 1.9 -0.7
v 0.3 2.4 1.9
v 0.3 2.4 1.8
v 0.3 2.5 1.9
v 0.3 2.5 1.8
v 0.4 2.3 2
v 0.4 2.3 1.9
v 0.4 2.4 2
v 0.4 2.4 1.9
v 0.4 2.4 0.0999999
v 0.4 2.4 -0.1
v 0.4 2.5 0.0999999
v 0.4 2.5 -0.1
v 0.3 2.3 2
v 0.3 2.3 1.9
v 0.3 2.4 2
v 0.3 2.4 1.9
v 0.3 2.4 0.0999999
v 0.3 2.4 -0.1
v 0.3 2.5 0.0999999
v 0.3 2.5 -0.1
v 0.4 1.6 -0.1
v 0.4 1.6 -0.4
v 0.4 1.7 -0.2
v 0.4 1.7 -0.4
v 0.4 1.7 -0.7
v 0.4 1.8 -0.2
v 0.4 1.8 -0.3
v 0.4 1.8 -0.4
v 0.4 1.8 -0.5
v 0.4 1.8 -0.6
v 0.4 1.9 -0.1
v 0.4 1.9 -0.3
v 0.4 1.9 -0.6
v 0.4 1.9 -0.7
v 0.4 2.4 1.9
v 0.4 2.4 1.8
v 0.4 2.5 1.9
v 0.4 2.5 1.8
v 0.5 1.2 -1.7
v 0.5 1.2 -1.8
v 0.5 1.3 -1.4
v 0.5 1.3 -1.7
v 0.5 1.4 -1.3
v 0.5 1.4 -1.4
v 0.5 1.4 -1.7
v 0.5 1.5 -1.2
v 0.5 1.5 -1.3
v 0.5 1.5 -1.4
v 0.5 1.5 -1.6
v 0.5 1.5 -1.7
v 0.5 1.6 -1.1
v 0.5 1.6 -1.2
v 0.5 1.6 -1.4
v 0.5 1.6 -1.6
v 0.5 1.6 -1.8
v 0.5 1.7 -1
v 0.5 1.7 -1.1
v 0.5 1.7 -1.2
v 0.5 1.7 -1.3
v 0.5 1.7 -1.5
v 0.5 1.7 -1.6
v 0.5 1.8 -0.3
v 0.5 1.8 -0.5
v 0.5 1.8 -0.9
v 0.5 1.8 -1
v 0.5 1.8 -1.2
v 0.5 1.8 -1.3
v 0.5 1.8 -1.4
v 0.5 1.8 -1.5
v 0.5 1.9 0.5
v 0.5 1.9 -0.1
v 0.5 1.9 -0.3
v 0.5 1.9 -0.5
v 0.5 1.9 -0.8
v 0.5 1.9 -0.9
v 0.5 1.9 -1
v 0.5 1.9 -1.3
v 0.5 1.9 -1.4
v 0.5 2 1.7
v 0.5 2 0.8
v 0.5 2 0.7
v 0.5 2 0.5
v 0.5 2 -0.2
v 0.5 2 -0.3
v 0.5 2 -0.5
v 0.5 2 -0.6
v 0.5 2 -0.9
v 0.5 2 -1
v 0.5 2 -1.1
v 0.5 2 -1.3
v 0.5 2.1 -0.7
v 0.5 2.1 -0.8
v 0.5 2.1 -1.1
v 0.5 2.2 2
v 0.5 2.2 1.7
v 0.5 2.2 0.8
v 0.5 2.2 0.7
v 0.5 2.2 -0.1
v 0.5 2.2 -0.4
v 0.5 2.2 -0.6
v 0.5 2.2 -0.7
v 0.5 2.3 -0.2
v 0.5 2.3 -0.4
v 0.5 2.3 -0.5
v 0.5 2.3 -0.6
v 0.5 2.4 2
v 0.5 2.4 0.0999999
v 0.5 2.4 -0.1
v 0.5 2.4 -0.5
v 0.5 2.5 0.0999999
v 0.5 2.5 -0.1
v 0.2 2.2 2
v 0.2 2.4 2
v 0.3 2.3 2
v 0.3 2.4 2
v 0.4 2.3 2
v 0.4 2.4 2
v 0.5 2.2 2
v 0.5 2.4 2
v 0.3 2.3 1.9
v 0.3 2.4 1.9
v 0.3 2.5 1.9
v 0.4 2.3 1.9
v 0.4 2.4 1.9
v 0.4 2.5 1.9
v 0.2 2 1.7
v 0.2 2.2 1.7
v 0.5 2 1.7
v 0.5 2.2 1.7
v 0.2 1.9 0.5
v 0.2 2 0.5
v 0.5 1.9 0.5
v 0.5 2 0.5
v 0.2 2.4 0.0999999
v 0.2 2.5 0.0999999
v 0.3 2.4 0.0999999
v 0.3 2.5 0.0999999
v 0.4 2.4 0.0999999
v 0.4 2.5 0.0999999
v 0.5 2.4 0.0999999
v 0.5 2.5 0.0999999
v 0.3 1.6 -0.1
v 0.3 1.9 -0.1
v 0.4 1.6 -0.1
v 0.4 1.9 -0.1
v 0.2 1.8 -0.3
v 0.2 1.9 -0.3
v 0.3 1.8 -0.3
v 0.3 1.9 -0.3
v 0.4 1.8 -0.3
v 0.4 1.9 -0.3
v 0.5 1.8 -0.3
v 0.5 1.9 -0.3
v 0.3 1.7 -0.4
v 0.3 1.8 -0.4
v 0.4 1.7 -0.4
v 0.4 1.8 -0.4
v 0.3 1.8 -0.6
v 0.3 1.9 -0.6
v 0.4 1.8 -0.6
v 0.4 1.9 -0.6
v 0.2 1.8 -0.9
v 0.2 1.9 -0.9
v 0.5 1.8 -0.9
v 0.5 1.9 -0.9
v 0.2 1.7 -1
v 0.2 1.8 -1
v 0.5 1.7 -1
v 0.5 1.8 -1
v 0.2 1.6 -1.1
v 0.2 1.7 -1.1
v 0.5 1.6 -1.1
v 0.5 1.7 -1.1
v 0.2 1.5 -1.2
v 0.2 1.6 -1.2
v 0.5 1.5 -1.2
v 0.5 1.6 -1.2
v 0.2 1.4 -1.3
v 0.2 1.5 -1.3
v 0.5 1.4 -1.3
v 0.5 1.5 -1.3
v 0.2 1.3 -1.4
v 0.2 1.4 -1.4
v 0.5 1.3 -1.4
v 0.5 1.4 -1.4
v 0.2 1.2 -1.7
v 0.2 1.3 -1.7
v 0.5 1.2 -1.7
v 0.5 1.3 -1.7
v 0.3 2.4 1.8
v 0.3 2.5 1.8
v 0.4 2.4 1.8
v 0.4 2.5 1.8
v 0.2 2.4 -0.1
v 0.2 2.5 -0.1
v 0.3 2.4 -0.1
v 0.3 2.5 -0.1
v 0.4 2.4 -0.1
v 0.4 2.5 -0.1
v 0.5 2.4 -0.1
v 0.5 2.5 -0.1
v 0.3 1.7 -0.2
v 0.3 1.8 -0.2
v 0.4 1.7 -0.2
v 0.4 1.8 -0.2
v 0.3 1.6 -0.4
v 0.3 1.7 -0.4
v 0.4 1.6 -0.4
v 0.4 1.7 -0.4
v 0.2 1.8 -0.5
v 0.2 1.9 -0.5
v 0.2 2.3 -0.5
v 0.2 2.4 -0.5
v 0.3 1.8 -0.5
v 0.4 1.8 -0.5
v 0.5 1.8 -0.5
v 0.5 1.9 -0.5
v 0.5 2.3 -0.5
v 0.5 2.4 -0.5
v 0.2 2.2 -0.6
v 0.2 2.3 -0.6
v 0.5 2.2 -0.6
v 0.5 2.3 -0.6
v 0.2 2.1 -0.7
v 0.2 2.2 -0.7
v 0.3 1.7 -0.7
v 0.3 1.9 -0.7
v 0.4 1.7 -0.7
v 0.4 1.9 -0.7
v 0.5 2.1 -0.7
v 0.5 2.2 -0.7
v 0.2 2 -1.1
v 0.2 2.1 -1.1
v 0.5 2 -1.1
v 0.5 2.1 -1.1
v 0.2 1.9 -1.3
v 0.2 2 -1.3
v 0.5 1.9 -1.3
v 0.5 2 -1.3
v 0.2 1.8 -1.4
v 0.2 1.9 -1.4
v 0.5 1.8 -1.4
v 0.5 1.9 -1.4
v 0.2 1.7 -1.5
v 0.2 1.8 -1.5
v 0.5 1.7 -1.5
v 0.5 1.8 -1.5
v 0.2 1.6 -1.6
v 0.2 1.7 -1.6
v 0.5 1.6 -1.6
v 0.5 1.7 -1.6
v 0.2 1.2 -1.8
v 0.2 1.6 -1.8
v 0.5 1.2 -1.8
v 0.5 1.6 -1.8
v 0.2 1.2 -1.7
v 0.5 1.2 -1.7
v 0.2 1.2 -1.8
v 0.5 1.2 -1.8
v 0.2 1.3 -1.4
v 0.5 1.3 -1.4
v 0.2 1.3 -1.7
v 0.5 1.3 -1.7
v 0.2 1.4 -1.3
v 0.5 1.4 -1.3
v 0.2 1.4 -1.4
v 0.5 1.4 -1.4
v 0.2 1.5 -1.2
v 0.5 1.5 -1.2
v 0.2 1.5 -1.3
v 0.5 1.5 -1.3
v 0.3 1.6 -0.1
v 0.4 1.6 -0.1
v 0.3 1.6 -0.4
v 0.4 1.6 -0.4
v 0.2 1.6 -1.1
v 0.5 1.6 -1.1
v 0.2 1.6 -1.2
v 0.5 1.6 -1.2
v 0.3 1.7 -0.4
v 0.4 1.7 -0.4
v 0.3 1.7 -0.7
v 0.4 1.7 -0.7
v 0.2 1.7 -1
v 0.5 1.7 -1
v 0.2 1.7 -1.1
v 0.5 1.7 -1.1
v 0.3 1.8 -0.2
v 0.4 1.8 -0.2
v 0.2 1.8 -0.3
v 0.3 1.8 -0.3
v 0.4 1.8 -0.3
v 0.5 1.8 -0.3
v 0.3 1.8 -0.4
v 0.4 1.8 -0.4
v 0.2 1.8 -0.5
v 0.3 1.8 -0.5
v 0.4 1.8 -0.5
v 0.5 1.8 -0.5
v 0.2 1.8 -0.9
v 0.5 1.8 -0.9
v 0.2 1.8 -1
v 0.5 1.8 -1
v 0.2 1.9 0.5
v 0.5 1.9 0.5
v 0.2 1.9 -0.1
v 0.3 1.9 -0.1
v 0.4 1.9 -0.1
v 0.5 1.9 -0.1
v 0.2 1.9 -0.3
v 0.3 1.9 -0.3
v 0.4 1.9 -0.3
v 0.5 1.9 -0.3
v 0.2 1.9 -0.5
v 0.5 1.9 -0.5
v 0.3 1.9 -0.6
v 0.4 1.9 -0.6
v 0.3 1.9 -0.7
v 0.4 1.9 -0.7
v 0.2 1.9 -0.8
v 0.5 1.9 -0.8
v 0.2 1.9 -0.9
v 0.5 1.9 -0.9
v 0.2 2 1.7
v 0.5 2 1.7
v 0.2 2 0.8
v 0.5 2 0.8
v 0.2 2 0.7
v 0.5 2 0.7
v 0.2 2 0.5
v 0.5 2 0.5
v 0.2 2.2 2
v 0.5 2.2 2
v 0.2 2.2 1.7
v 0.5 2.2 1.7
v 0.2 1.6 -1.6
v 0.5 1.6 -1.6
v 0.2 1.6 -1.8
v 0.5 1.6 -1.8
v 0.3 1.7 -0.2
v 0.4 1.7 -0.2
v 0.3 1.7 -0.4
v 0.4 1.7 -0.4
v 0.2 1.7 -1.5
v 0.5 1.7 -1.5
v 0.2 1.7 -1.6
v 0.5 1.7 -1.6
v 0.3 1.8 -0.5
v 0.4 1.8 -0.5
v 0.3 1.8 -0.6
v 0.4 1.8 -0.6
v 0.2 1.8 -1.4
v 0.5 1.8 -1.4
v 0.2 1.8 -1.5
v 0.5 1.8 -1.5
v 0.2 1.9 -1.3
v 0.5 1.9 -1.3
v 0.2 1.9 -1.4
v 0.5 1.9 -1.4
v 0.2 2 -1.1
v 0.5 2 -1.1
v 0.2 2 -1.3
v 0.5 2 -1.3
v 0.2 2.1 -0.7
v 0.5 2.1 -0.7
v 0.2 2.1 -0.8
v 0.5 2.1 -0.8
v 0.2 2.1 -1.1
v 0.5 2.1 -1.1
v 0.2 2.2 -0.6
v 0.5 2.2 -0.6
v 0.2 2.2 -0.7
v 0.5 2.2 -0.7
v 0.3 2.3 2
v 0.4 2.3 2
v 0.3 2.3 1.9
v 0.4 2.3 1.9
v 0.2 2.3 -0.5
v 0.5 2.3 -0.5
v 0.2 2.3 -0.6
v 0.5 2.3 -0.6
v 0.2 2.4 2
v 0.3 2.4 2
v 0.4 2.4 2
v 0.5 2.4 2
v 0.3 2.4 1.9
v 0.4 2.4 1.9
v 0.3 2.4 1.8
v 0.4 2.4 1.8
v 0.2 2.4 0.0999999
v 0.3 2.4 0.0999999
v 0.4 2.4 0.0999999
v 0.5 2.4 0.0999999
v 0.2 2.4 -0.1
v 0.3 2.4 -0.1
v 0.4 2.4 -0.1
v 0.5 2.4 -0.1
v 0.2 2.4 -0.5
v 0.5 2.4 -0.5
v 0.3 2.5 1.9
v 0.4 2.5 1.9
v 0.3 2.5 1.8
v 0.4 2.5 1.8
v 0.2 2.5 0.0999999
v 0.3 2.5 0.0999999
v 0.4 2.5 0.0999999
v 0.5 2.5 0.0999999
v 0.2 2.5 -0.1
v 0.3 2.5 -0.1
v 0.4 2.5 -0.1
v 0.5 2.5 -0.1

# faces
f 4/4/1 2/4/1 1/4/1
f 6/4/1 4/4/1 3/4/1
f 7/4/1 2/4/1 4/4/1
f 7/4/1 4/4/1 6/4/1
f 9/4/1 6/4/1 5/4/1
f 10/3/1 7/3/1 6/3/1
f 10/4/1 6/4/1 9/4/1
f 11/3/1 7/3/1 10/3/1
f 12/4/1 2/4/1 7/4/1
f 12/3/1 7/3/1 11/3/1
f 14/4/1 9/4/1 8/4/1
f 15/3/1 11/3/1 10/3/1
f 15/3/1 10/3/1 9/3/1
f 15/4/1 9/4/1 14/4/1
f 16/3/1 11/3/1 15/3/1
f 17/4/1 12/4/1 11/4/1
f 17/3/1 11/3/1 16/3/1
f 18/4/1 2/4/1 12/4/1
f 18/4/1 12/4/1 17/4/1
f 20/4/1 14/4/1 13/4/1
f 21/3/1 16/3/1 15/3/1
f 21/3/1 15/3/1 14/3/1
f 22/4/1 17/4/1 16/4/1
f 22/3/1 16/3/1 21/3/1
f 23/4/1 17/4/1 22/4/1
f 24/4/1 17/4/1 23/4/1
f 28/4/1 20/4/1 19/4/1
f 29/4/1 14/4/1 20/4/1
f 29/4/1 20/4/1 28/4/1
f 30/3/1 21/3/1 14/3/1
f 30/4/1 14/4/1 29/4/1
f 31/4/1 22/4/1 21/4/1
f 31/4/1 23/4/1 22/4/1
f 32/4/1 23/4/1 31/4/1
f 35/2/1 26/2/1 25/2/1
f 36/2/1 26/2/1 35/2/1
f 38/4/1 29/4/1 28/4/1
f 38/4/1 28/4/1 27/4/1
f 39/3/1 30/3/1 29/3/1
f 39/4/1 29/4/1 38/4/1
f 40/3/1 21/3/1 30/3/1
f 40/3/1 30/3/1 39/3/1
f 40/4/1 31/4/1 21/4/1
f 41/4/1 31/4/1 40/4/1
f 45/4/1 34/4/1 33/4/1
f 46/2/1 35/2/1 34/2/1
f 47/1/1 36/1/1 35/1/1
f 47/2/1 35/2/1 46/2/1
f 48/2/1 37/2/1 36/2/1
f 48/1/1 36/1/1 47/1/1
f 49/2/1 37/2/1 48/2/1
f 50/4/1 39/4/1 38/4/1
f 50/4/1 38/4/1 37/4/1
f 50/4/1 40/4/1 39/4/1
f 51/4/1 40/4/1 50/4/1
f 52/2/1 37/2/1 49/2/1
f 53/4/1 50/4/1 37/4/1
f 53/2/1 37/2/1 52/2/1
f 54/4/1 50/4/1 53/4/1
f 56/6/1 43/6/1 42/6/1
f 57/2/1 44/2/1 43/2/1
f 57/6/1 43/6/1 56/6/1
f 58/4/1 45/4/1 44/4/1
f 58/2/1 44/2/1 57/2/1
f 59/2/1 46/2/1 34/2/1
f 59/4/1 45/4/1 58/4/1
f 59/4/1 34/4/1 45/4/1
f 60/1/1 47/1/1 46/1/1
f 60/1/1 49/1/1 48/1/1
f 60/1/1 48/1/1 47/1/1
f 61/2/1 52/2/1 49/2/1
f 61/1/1 49/1/1 60/1/1
f 62/2/1 52/2/1 61/2/1
f 63/2/1 46/2/1 59/2/1
f 63/1/1 60/1/1 46/1/1
f 64/2/1 61/2/1 60/2/1
f 64/1/1 60/1/1 63/1/1
f 65/2/1 61/2/1 64/2/1
f 66/2/1 61/2/1 65/2/1
f 67/5/1 56/5/1 55/5/1
f 67/5/1 58/5/1 57/5/1
f 67/5/1 59/5/1 58/5/1
f 67/5/1 57/5/1 56/5/1
f 68/5/1 59/5/1 67/5/1
f 69/2/1 65/2/1 64/2/1
f 69/5/1 59/5/1 68/5/1
f 69/2/1 64/2/1 63/2/1
f 69/2/1 63/2/1 59/2/1
f 70/2/1 65/2/1 69/2/1
f 71/6/1 69/6/1 68/6/1
f 72/6/1 69/6/1 71/6/1
f 75/6/1 74/6/1 73/6/1
f 76/6/1 74/6/1 75/6/1
f 78/6/1 75/6/1 73/6/1
f 80/6/1 77/6/1 76/6/1
f 81/6/1 77/6/1 80/6/1
f 82/6/1 77/6/1 81/6/1
f 83/6/1 79/6/1 78/6/1
f 83/6/1 78/6/1 73/6/1
f 84/6/1 79/6/1 83/6/1
f 85/6/1 77/6/1 82/6/1
f 86/6/1 77/6/1 85/6/1
f 89/6/1 88/6/1 87/6/1
f 90/6/1 88/6/1 89/6/1
f 93/5/1 92/5/1 91/5/1
f 94/5/1 92/5/1 93/5/1
f 97/6/1 96/6/1 95/6/1
f 98/6/1 96/6/1 97/6/1
f 99/5/2 100/5/2 101/5/2
f 101/5/2 100/5/2 102/5/2
f 103/6/2 104/6/2 105/6/2
f 105/6/2 104/6/2 106/6/2
f 107/6/2 108/6/2 109/6/2
f 109/6/2 108/6/2 110/6/2
f 107/6/2 109/6/2 112/6/2
f 110/6/2 111/6/2 114/6/2
f 114/6/2 111/6/2 115/6/2
f 115/6/2 111/6/2 116/6/2
f 112/6/2 113/6/2 117/6/2
f 107/6/2 112/6/2 117/6/2
f 117/6/2 113/6/2 118/6/2
f 116/6/2 111/6/2 119/6/2
f 119/6/2 111/6/2 120/6/2
f 121/6/2 122/6/2 123/6/2
f 123/6/2 122/6/2 124/6/2
f 125/4/2 126/4/2 128/4/2
f 127/4/2 128/4/2 130/4/2
f 128/4/2 126/4/2 131/4/2
f 130/4/2 128/4/2 131/4/2
f 129/4/2 130/4/2 133/4/2
f 130/3/2 131/3/2 134/3/2
f 133/4/2 130/4/2 134/4/2
f 134/3/2 131/3/2 135/3/2
f 131/4/2 126/4/2 136/4/2
f 135/3/2 131/3/2 136/3/2
f 132/4/2 133/4/2 138/4/2
f 134/3/2 135/3/2 139/3/2
f 133/3/2 134/3/2 139/3/2
f 135/4/2 136/4/2 140/4/2
f 139/3/2 135/3/2 140/3/2
f 136/4/2 126/4/2 141/4/2
f 140/4/2 136/4/2 141/4/2
f 137/4/2 138/4/2 143/4/2
f 138/4/2 133/4/2 144/4/2
f 143/4/2 138/4/2 144/4/2
f 133/3/2 139/3/2 145/3/2
f 144/4/2 133/4/2 145/4/2
f 139/4/2 140/4/2 146/4/2
f 146/4/2 140/4/2 147/4/2
f 142/4/2 143/4/2 151/4/2
f 143/4/2 144/4/2 151/4/2
f 144/3/2 145/3/2 152/3/2
f 151/4/2 144/4/2 152/4/2
f 145/3/2 139/3/2 153/3/2
f 152/3/2 145/3/2 153/3/2
f 139/4/2 146/4/2 154/4/2
f 153/3/2 139/3/2 154/3/2
f 154/4/2 146/4/2 155/4/2
f 148/2/2 149/2/2 158/2/2
f 158/2/2 149/2/2 159/2/2
f 150/4/2 151/4/2 161/4/2
f 151/3/2 152/3/2 162/3/2
f 152/3/2 153/3/2 162/3/2
f 161/4/2 151/4/2 162/4/2
f 153/4/2 154/4/2 163/4/2
f 162/3/2 153/3/2 163/3/2
f 163/4/2 154/4/2 164/4/2
f 156/4/2 157/4/2 168/4/2
f 157/2/2 158/2/2 169/2/2
f 158/1/2 159/1/2 170/1/2
f 169/2/2 158/2/2 170/2/2
f 159/2/2 160/2/2 171/2/2
f 170/1/2 159/1/2 171/1/2
f 171/2/2 160/2/2 172/2/2
f 160/4/2 161/4/2 173/4/2
f 161/3/2 162/3/2 173/3/2
f 162/4/2 163/4/2 174/4/2
f 173/3/2 162/3/2 174/3/2
f 174/4/2 163/4/2 175/4/2
f 175/4/2 163/4/2 176/4/2
f 172/2/2 160/2/2 177/2/2
f 160/4/2 173/4/2 178/4/2
f 177/2/2 160/2/2 178/2/2
f 173/4/2 174/4/2 178/4/2
f 174/4/2 175/4/2 178/4/2
f 178/4/2 175/4/2 179/4/2
f 165/6/2 166/6/2 181/6/2
f 166/2/2 167/2/2 182/2/2
f 181/6/2 166/6/2 182/6/2
f 167/4/2 168/4/2 183/4/2
f 182/2/2 167/2/2 183/2/2
f 157/2/2 169/2/2 184/2/2
f 183/4/2 168/4/2 184/4/2
f 168/4/2 157/4/2 184/4/2
f 169/1/2 170/1/2 185/1/2
f 171/1/2 172/1/2 185/1/2
f 170/1/2 171/1/2 185/1/2
f 172/2/2 177/2/2 186/2/2
f 185/1/2 172/1/2 186/1/2
f 186/2/2 177/2/2 187/2/2
f 184/2/2 169/2/2 188/2/2
f 169/1/2 185/1/2 188/1/2
f 185/2/2 186/2/2 189/2/2
f 188/1/2 185/1/2 189/1/2
f 189/2/2 186/2/2 190/2/2
f 190/2/2 186/2/2 191/2/2
f 180/5/2 181/5/2 192/5/2
f 183/5/2 184/5/2 192/5/2
f 181/5/2 182/5/2 192/5/2
f 182/5/2 183/5/2 192/5/2
f 192/5/2 184/5/2 193/5/2
f 189/2/2 190/2/2 194/2/2
f 193/5/2 184/5/2 194/5/2
f 188/2/2 189/2/2 194/2/2
f 184/2/2 188/2/2 194/2/2
f 194/2/2 190/2/2 195/2/2
f 193/6/2 194/6/2 196/6/2
f 196/6/2 194/6/2 197/6/2
f 200/5/3 199/5/3 198/5/3
f 201/5/3 199/5/3 200/5/3
f 202/5/3 200/5/3 198/5/3
f 204/5/3 202/5/3 198/5/3
f 204/5/3 203/5/3 202/5/3
f 205/5/3 203/5/3 204/5/3
f 209/5/3 207/5/3 206/5/3
f 210/6/3 208/6/3 207/6/3
f 210/5/3 207/5/3 209/5/3
f 211/6/3 208/6/3 210/6/3
f 214/6/3 213/6/3 212/6/3
f 215/6/3 213/6/3 214/6/3
f 218/4/3 217/4/3 216/4/3
f 219/4/3 217/4/3 218/4/3
f 222/6/3 221/6/3 220/6/3
f 223/6/3 221/6/3 222/6/3
f 226/6/3 225/6/3 224/6/3
f 227/6/3 225/6/3 226/6/3
f 230/6/3 229/6/3 228/6/3
f 231/6/3 229/6/3 230/6/3
f 234/2/3 233/2/3 232/2/3
f 235/2/3 233/2/3 234/2/3
f 238/2/3 237/2/3 236/2/3
f 239/2/3 237/2/3 238/2/3
f 242/6/3 241/6/3 240/6/3
f 243/6/3 241/6/3 242/6/3
f 246/6/3 245/6/3 244/6/3
f 247/6/3 245/6/3 246/6/3
f 250/4/3 249/4/3 248/4/3
f 251/4/3 249/4/3 250/4/3
f 254/4/3 253/4/3 252/4/3
f 255/4/3 253/4/3 254/4/3
f 258/4/3 257/4/3 256/4/3
f 259/4/3 257/4/3 258/4/3
f 262/4/3 261/4/3 260/4/3
f 263/4/3 261/4/3 262/4/3
f 266/4/3 265/4/3 264/4/3
f 267/4/3 265/4/3 266/4/3
f 270/4/3 269/4/3 268/4/3
f 271/4/3 269/4/3 270/4/3
f 274/4/3 273/4/3 272/4/3
f 275/4/3 273/4/3 274/4/3
f 276/6/4 277/6/4 278/6/4
f 278/6/4 277/6/4 279/6/4
f 280/6/4 281/6/4 282/6/4
f 282/6/4 281/6/4 283/6/4
f 284/6/4 285/6/4 286/6/4
f 286/6/4 285/6/4 287/6/4
f 288/6/4 289/6/4 290/6/4
f 290/6/4 289/6/4 291/6/4
f 292/6/4 293/6/4 294/6/4
f 294/6/4 293/6/4 295/6/4
f 296/2/4 297/2/4 300/2/4
f 300/2/4 297/2/4 301/2/4
f 301/2/4 297/2/4 302/2/4
f 302/2/4 297/2/4 303/2/4
f 298/2/4 299/2/4 304/2/4
f 304/2/4 299/2/4 305/2/4
f 306/2/4 307/2/4 308/2/4
f 308/2/4 307/2/4 309/2/4
f 312/6/4 313/6/4 314/6/4
f 314/6/4 313/6/4 315/6/4
f 310/2/4 311/2/4 316/2/4
f 316/2/4 311/2/4 317/2/4
f 318/4/4 319/4/4 320/4/4
f 320/4/4 319/4/4 321/4/4
f 322/4/4 323/4/4 324/4/4
f 324/4/4 323/4/4 325/4/4
f 326/4/4 327/4/4 328/4/4
f 328/4/4 327/4/4 329/4/4
f 330/4/4 331/4/4 332/4/4
f 332/4/4 331/4/4 333/4/4
f 334/4/4 335/4/4 336/4/4
f 336/4/4 335/4/4 337/4/4
f 338/4/4 339/4/4 340/4/4
f 340/4/4 339/4/4 341/4/4
f 344/4/5 343/4/5 342/4/5
f 345/4/5 343/4/5 344/4/5
f 348/4/5 347/4/5 346/4/5
f 349/4/5 347/4/5 348/4/5
f 352/4/5 351/4/5 350/4/5
f 353/4/5 351/4/5 352/4/5
f 356/4/5 355/4/5 354/4/5
f 357/4/5 355/4/5 356/4/5
f 360/6/5 359/6/5 358/6/5
f 361/6/5 359/6/5 360/6/5
f 364/4/5 363/4/5 362/4/5
f 365/4/5 363/4/5 364/4/5
f 368/6/5 367/6/5 366/6/5
f 369/6/5 367/6/5 368/6/5
f 372/4/5 371/4/5 370/4/5
f 373/4/5 371/4/5 372/4/5
f 377/6/5 375/6/5 374/6/5
f 378/6/5 375/6/5 377/6/5
f 380/2/5 377/2/5 376/2/5
f 380/2/5 379/2/5 378/2/5
f 380/2/5 378/2/5 377/2/5
f 381/2/5 379/2/5 380/2/5
f 382/2/5 380/2/5 376/2/5
f 383/2/5 380/2/5 382/2/5
f 384/2/5 379/2/5 381/2/5
f 385/2/5 379/2/5 384/2/5
f 388/4/5 387/4/5 386/4/5
f 389/4/5 387/4/5 388/4/5
f 392/4/5 391/4/5 390/4/5
f 393/4/5 391/4/5 392/4/5
f 394/4/5 391/4/5 393/4/5
f 395/4/5 391/4/5 394/4/5
f 396/2/5 393/2/5 392/2/5
f 397/2/5 393/2/5 396/2/5
f 398/2/5 395/2/5 394/2/5
f 399/2/5 395/2/5 398/2/5
f 402/2/5 401/2/5 400/2/5
f 403/2/5 401/2/5 402/2/5
f 404/2/5 402/2/5 400/2/5
f 405/2/5 401/2/5 403/2/5
f 406/2/5 404/2/5 400/2/5
f 406/2/5 405/2/5 404/2/5
f 407/2/5 401/2/5 405/2/5
f 407/2/5 405/2/5 406/2/5
f 408/4/5 407/4/5 406/4/5
f 409/4/5 407/4/5 408/4/5
f 412/6/5 411/6/5 410/6/5
f 413/6/5 411/6/5 412/6/5
f 414/2/5 413/2/5 412/2/5
f 415/2/5 413/2/5 414/2/5
f 416/4/5 415/4/5 414/4/5
f 417/4/5 415/4/5 416/4/5
f 420/5/5 419/5/5 418/5/5
f 421/5/5 419/5/5 420/5/5
f 422/4/6 423/4/6 424/4/6
f 424/4/6 423/4/6 425/4/6
f 426/6/6 427/6/6 428/6/6
f 428/6/6 427/6/6 429/6/6
f 430/4/6 431/4/6 432/4/6
f 432/4/6 431/4/6 433/4/6
f 434/6/6 435/6/6 436/6/6
f 436/6/6 435/6/6 437/6/6
f 438/4/6 439/4/6 440/4/6
f 440/4/6 439/4/6 441/4/6
f 442/4/6 443/4/6 444/4/6
f 444/4/6 443/4/6 445/4/6
f 446/4/6 447/4/6 448/4/6
f 448/4/6 447/4/6 449/4/6
f 450/2/6 451/2/6 452/2/6
f 452/2/6 451/2/6 453/2/6
f 452/4/6 453/4/6 454/4/6
f 454/4/6 453/4/6 455/4/6
f 456/2/6 457/2/6 458/2/6
f 458/2/6 457/2/6 459/2/6
f 460/5/6 461/5/6 462/5/6
f 462/5/6 461/5/6 463/5/6
f 464/2/6 465/2/6 466/2/6
f 466/2/6 465/2/6 467/2/6
f 468/5/6 469/5/6 472/5/6
f 470/5/6 471/5/6 473/5/6
f 468/5/6 472/5/6 474/5/6
f 473/5/6 471/5/6 475/5/6
f 468/5/6 474/5/6 476/5/6
f 474/5/6 475/5/6 476/5/6
f 476/5/6 475/5/6 477/5/6
f 475/5/6 471/5/6 478/5/6
f 477/5/6 475/5/6 478/5/6
f 478/5/6 471/5/6 479/5/6
f 477/5/6 478/5/6 481/5/6
f 481/5/6 478/5/6 482/5/6
f 480/2/6 481/2/6 484/2/6
f 482/2/6 483/2/6 484/2/6
f 481/2/6 482/2/6 484/2/6
f 484/2/6 483/2/6 485/2/6
f 486/6/6 487/6/6 488/6/6
f 488/6/6 487/6/6 489/6/6
f 490/6/6 491/6/6 494/6/6
f 494/6/6 491/6/6 495/6/6
f 492/6/6 493/6/6 496/6/6
f 496/6/6 493/6/6 497/6/6
